PathFileType	4	(X/Y/Z)	F:\MotionCapture\20160217\3\Generated_files\2_Test03-Dynamic.trc
DataRate	CameraRate	NumFrames	NumMarkers	Units	OrigDataRate	OrigDataStartFrame	OrigNumFrames
120.00	120.00	       7	39	mm	120.00	211	       841
Frame#	Time	Top.Head			Front.Head			Rear.Head			R.Shoulder			R.Offset			R.Elbow			R.Wrist			L.Shoulder			L.Elbow			L.Wrist			R.ASIS			L.ASIS			V.Sacral			R.Thigh			R.Knee			R.Shank			R.Ankle			R.Heel			R.Toe			L.Thigh			L.Knee			L.Shank			L.Ankle			L.Heel			L.Toe			R1			R2			R3			R4			R5			R6			R7			L1			L2			L3			L4			L5			L6			L7			V_Mid_ASIS			V_Pelvis_Origin			V_R.Hip_JC			V_L.Hip_JC			V_R.Knee_JC			V_L.Knee_JC			V_R.Ankle_JC			V_L.Ankle_JC			V_Mid_Hip			V_Mid_Shoulder			V_R.Hand			V_L.Hand			V_R.Toe_Offset_Static			V_L.Toe_Offset_Static			V_R.Toe_Offset			V_L.Toe_Offset			
		X1	Y1	Z1	X2	Y2	Z2	X3	Y3	Z3	X4	Y4	Z4	X5	Y5	Z5	X6	Y6	Z6	X7	Y7	Z7	X8	Y8	Z8	X9	Y9	Z9	X10	Y10	Z10	X11	Y11	Z11	X12	Y12	Z12	X13	Y13	Z13	X14	Y14	Z14	X15	Y15	Z15	X16	Y16	Z16	X17	Y17	Z17	X18	Y18	Z18	X19	Y19	Z19	X20	Y20	Z20	X21	Y21	Z21	X22	Y22	Z22	X23	Y23	Z23	X24	Y24	Z24	X25	Y25	Z25	X26	Y26	Z26	X27	Y27	Z27	X28	Y28	Z28	X29	Y29	Z29	X30	Y30	Z30	X31	Y31	Z31	X32	Y32	Z32	X33	Y33	Z33	X34	Y34	Z34	X35	Y35	Z35	X36	Y36	Z36	X37	Y37	Z37	X38	Y38	Z38	X39	Y39	Z39	

211	1.750	2197.14331	115.05117	1707.82971	2099.32959	108.83999	1607.97620	2315.12256	108.20520	1656.61707	2294.26099	295.55438	1404.86804	2434.75513	23.49691	1277.42883	2369.15356	395.17242	1089.02051	2261.90039	402.46280	849.70422	2264.45215	-112.46542	1416.08728	2280.97607	-210.13821	1089.28333	2161.24292	-167.32504	864.32648	2255.82886	236.64699	938.45477	2246.01880	-52.36949	935.69763	2477.25830	85.98438	946.87634	2135.04053	230.30476	600.23572	2196.98340	284.22641	479.46762	2282.95459	213.68175	263.34705	2419.37939	278.98758	143.79305	2479.84155	209.56313	140.21291	2297.16772	281.06235	65.01922	2253.79712	4.41043	601.73553	2363.25879	-46.61431	453.44733	2387.29614	33.22086	315.13675	2507.86597	-27.48483	66.26101	2576.92847	29.08656	50.09591	2373.14063	-23.30256	48.33267	2252.75269	271.73242	58.32042	2283.58203	245.63202	70.53869	2363.67456	199.09059	111.79260	2435.87329	185.71928	124.98928	2459.05127	256.79584	131.20448	2394.30518	293.75754	93.84570	2337.68848	311.36066	67.84267	2327.11523	3.18902	44.11724	2360.95459	15.98930	49.82101	2455.59741	60.40998	53.31616	2540.31030	60.12111	49.05328	2550.39209	-12.56196	48.95214	2476.97021	-42.05060	41.12510	2415.43677	-53.20959	46.49124																																																	2706.90820	127.81184	-19.02267	2467.88232	-57.09061	23.05730	
212	1.758	2191.21582	115.44642	1706.92297	2096.42139	109.90491	1606.63928	2308.84204	108.02699	1655.96948	2290.37671	295.68936	1404.34412	2429.44727	22.56468	1277.30017	2367.84766	394.25278	1089.12292	2265.02026	404.10419	848.48468	2257.89575	-112.75532	1415.44958	2274.34546	-210.57906	1088.99255	2153.01807	-166.16484	864.71606	2253.27124	235.33704	938.09827	2241.40283	-53.18536	934.95618	2473.00317	85.84134	946.68750	2126.01636	230.12796	603.44257	2187.33960	283.47156	481.22455	2271.71191	212.25909	263.72299	2405.51831	276.42804	142.48770	2466.55420	206.92145	138.66241	2282.50806	278.56500	66.54318	2252.48730	4.40977	600.01599	2362.04346	-46.74580	452.89862	2386.19824	33.36871	314.86926	2507.94214	-27.50786	66.45840	2576.91016	29.21971	50.26274	2373.07886	-23.17449	48.17617	2237.59985	269.35797	59.41283	2268.39209	243.31567	71.21514	2346.04712	196.13644	111.96564	2421.32813	182.89238	123.65191	2444.52197	253.78281	129.35670	2379.46069	290.53809	92.87848	2322.81030	308.45380	68.03248	2327.03687	3.27711	44.02362	2361.27246	15.86352	49.84226	2455.52930	60.48160	52.94983	2540.26367	60.20703	49.10266	2550.30298	-12.34399	49.06652	2476.87817	-41.85884	41.27905	2415.43848	-53.19471	46.46861																																																	4009.82642	-270.40811	-314.82944	2467.67822	-57.20360	23.02576	2926.28516	46.05489	829.77112	
213	1.767	2184.72852	114.75865	1705.79419	2086.64966	109.14058	1605.67615	2302.61987	107.67574	1655.25488	2285.52783	295.19754	1403.52771	2424.03149	21.73915	1276.95959	2366.30371	393.56619	1089.76160	2267.42432	405.09586	846.85352	2251.74854	-113.03689	1414.73535	2266.92554	-210.18547	1088.03308	2144.12915	-165.22443	865.01764	2248.08887	234.09854	938.13806	2236.31543	-53.52590	934.35376	2468.36035	85.63457	946.14886	2117.88672	229.74057	606.20758	2178.21509	284.04016	482.87372	2258.86328	210.63733	264.57297	2390.14380	273.51300	140.45039	2450.34204	203.80682	135.88277	2266.20825	276.43854	66.54191	2249.23779	3.94531	598.93439	2361.11035	-46.58280	452.20770	2384.92749	33.27195	314.35370	2507.96289	-27.47500	66.50156	2576.92969	29.35648	50.40037	2373.03345	-23.09000	48.06959	2220.84668	267.53082	59.70652	2251.80371	241.31187	72.06396	2331.07227	193.89551	110.88862	2405.96069	180.27000	121.81969	2429.35107	251.06395	126.74129	2363.77490	288.12531	91.60775	2306.59204	306.11731	67.58580	2326.94849	3.34625	43.87530	2360.81714	16.19900	49.68381	2455.60840	60.56132	52.70918	2540.19434	60.25358	49.08097	2550.21826	-12.09392	49.16970	2476.70166	-40.39812	41.55017	2415.48169	-53.05338	46.56153																																																	2467.68237	-57.01137	23.05764	2921.16797	44.88826	829.16949	
214	1.775	2177.98975	114.70862	1704.68347	2080.56494	109.52024	1604.56091	2296.38623	107.51653	1654.48108	2280.26440	294.59219	1402.74512	2418.39673	20.82686	1276.75171	2364.90552	392.72275	1090.00757	2270.24487	406.99374	845.50299	2245.61255	-113.43079	1414.03552	2259.15869	-209.95833	1086.77429	2135.13721	-163.99260	865.23480	2243.86230	233.64284	937.73590	2232.45532	-53.91153	932.89008	2463.84888	85.70390	945.59564	2109.95361	229.59669	609.27283	2168.90503	283.33069	484.54431	2244.55615	209.53909	264.38440	2374.48804	271.33038	137.73756	2433.97144	200.94481	131.88051	2248.60303	274.47565	66.56838	2246.99023	4.34312	597.72565	2359.87061	-46.91071	451.72247	2384.04932	33.32464	313.96820	2507.97925	-27.39456	66.54216	2576.83179	29.51582	50.67128	2372.78687	-22.82231	47.78884	2203.38916	265.99646	61.24450	2234.41016	239.74341	72.57042	2315.08960	192.61929	109.70531	2389.06104	178.04759	119.22755	2412.92725	248.59477	123.49628	2347.04956	286.10452	89.50382	2289.78223	304.34857	66.95553	2327.18506	3.20805	43.71568	2360.63989	16.25919	49.66534	2455.43701	60.60311	52.42695	2540.70923	61.31311	49.92478	2550.09961	-11.87292	49.40981	2476.60913	-40.16793	41.55045	2415.45215	-53.10492	46.49692																																																	2958.69287	197.06750	-90.09077	
215	1.783	2171.62476	114.81257	1703.49707	2077.07007	109.50381	1603.05457	2289.67017	107.42025	1653.49634	2275.78955	294.33447	1402.12280	2412.60010	20.21303	1276.33984	2363.22363	392.47739	1090.43835	2272.79541	408.45145	844.61462	2238.98340	-113.31514	1413.31787	2251.46606	-209.94205	1085.51355	2125.48145	-163.12595	865.56836	2240.47656	233.15947	937.42554	2227.41064	-54.25085	931.92712	2459.14819	85.47092	945.07166	2102.75244	229.82053	611.34949	2159.92651	283.27728	485.75070	2230.54297	208.59537	264.39566	2357.85938	269.59863	134.64949	2416.80225	198.59857	127.57719	2230.23999	273.11255	66.82765	2245.54663	4.04390	596.09375	2358.64087	-46.98111	451.36353	2382.76025	33.70741	313.69440	2507.97827	-27.37828	66.67543	2576.73828	29.64076	51.06174	2372.72266	-22.78381	47.66380	2184.73364	264.30478	62.12174	2216.41528	238.72050	72.84039	2297.32715	190.32214	108.51238	2370.05371	175.11635	115.67630	2395.76318	246.43823	119.65788	2328.64966	284.08966	87.05710	2271.59717	303.41434	66.22394	2326.75781	3.22017	43.46445	2360.49487	16.24189	49.57853	2455.22754	60.60642	52.14817	2540.25830	60.95159	49.63760	2549.99585	-11.65739	49.75104	2476.54639	-40.06554	41.62075	2415.41968	-53.09609	46.40294																																																	2957.24487	195.74007	-92.44910	
216	1.792	2165.22949	114.95592	1702.45361	2069.20068	109.76647	1601.81067	2283.02979	107.38062	1652.34485	2270.35083	293.98865	1401.10083	2406.62036	19.13723	1275.86389	2361.51489	392.37561	1090.66260	2275.80054	410.15106	843.43268	2232.12256	-113.79056	1412.61572	2243.92505	-209.88844	1084.89111	2115.75781	-161.20732	865.82019	2234.02563	232.39883	937.15869	2222.19360	-54.84122	931.04388	2454.31079	85.32615	944.64886	2095.29883	229.73329	614.17200	2151.24951	282.95874	487.18903	2215.80420	207.74524	264.23660	2339.34717	267.61725	130.31020	2398.40479	196.56654	122.42260	2210.91846	272.06055	66.91031	2241.43555	3.85785	595.11755	2357.06226	-46.65164	450.89874	2382.38696	33.85479	313.48483	2507.90796	-26.20063	65.70408	2576.65112	29.74868	51.44401	2372.41797	-22.60306	47.32517	2164.77905	263.06787	62.72848	2196.90234	237.51169	72.93230	2278.05420	188.51755	106.69047	2351.36060	173.42424	112.07332	2377.55347	244.53307	115.19344	2309.46875	282.72656	84.30616	2251.60278	301.37592	64.53257	2326.48804	2.98689	43.23846	2360.43481	16.17246	49.52287	2455.12573	60.58187	52.03312	2540.15527	60.90854	49.88052	2549.94922	-10.41574	50.39632	2476.47241	-39.92274	41.62267	2415.36206	-53.09051	46.32343	
217	1.800	2157.96924	114.95618	1701.04712	2060.56812	109.17713	1600.57874	2276.54932	107.38382	1651.28430	2265.67114	293.99857	1400.21960	2400.73047	18.16532	1275.31165	2359.67163	392.03925	1090.97253	2278.14331	411.36026	841.91235	2224.98486	-113.48032	1411.80298	2236.13696	-209.82324	1083.64380	2105.97437	-159.43327	866.02692	2229.51563	232.66525	937.05719	2218.06592	-55.06427	929.67847	2449.34155	85.07374	944.01019	2087.87256	228.93324	615.99054	2142.54297	282.37399	488.35709	2200.53223	207.25491	263.21646	2320.67554	265.76862	125.90149	2379.80566	195.10350	117.00327	2191.29541	270.98120	66.69077	2237.91968	4.18810	594.13086	2355.48535	-46.65185	450.65225	2381.72168	33.94659	313.03510	2508.23438	-25.36030	65.31513	2576.56787	29.85022	51.69287	2372.18970	-22.68675	47.11028	2144.45703	262.88785	63.88713	2176.26978	237.06137	73.15260	2258.72168	187.80286	103.64572	2332.78003	172.48941	107.82993	2358.32861	243.18013	110.13696	2291.76611	282.01126	81.43588	2232.06030	299.41483	63.01100	2326.41943	2.12685	41.98720	2360.30884	16.07619	49.37312	2454.91968	60.70776	51.76395	2540.48218	61.53782	50.46072	2549.85669	-10.35726	50.67990	2476.78174	-41.44403	41.30328	2415.32300	-53.42517	46.14691	
